<svg xmlns="http://www.w3.org/2000/svg" width="16" height="16" viewBox="0 0 16 16"><defs><style>.a{fill:#0f2231;}</style></defs><path class="a" d="M4,12.667a4,4,0,0,1-4-4V3.334H12V4a2.667,2.667,0,0,1,0,5.333h-.055A4,4,0,0,1,8,12.667Zm-2.667-4A2.67,2.67,0,0,0,4,11.333H8a2.67,2.67,0,0,0,2.667-2.666v-4H1.333ZM12,8a1.334,1.334,0,0,0,0-2.667ZM8,2V.667a.667.667,0,0,1,1.334,0V2A.667.667,0,0,1,8,2ZM5.333,2V.667a.667.667,0,1,1,1.333,0V2A.667.667,0,1,1,5.333,2ZM2.666,2V.667A.667.667,0,0,1,4,.667V2A.667.667,0,0,1,2.666,2Z" transform="translate(0.667 1.667)"/></svg>