<?xml version="1.0" encoding="utf-8"?>
<!-- Generator: Adobe Illustrator 23.1.0, SVG Export Plug-In . SVG Version: 6.00 Build 0)  -->
<svg version="1.1" id="Layer_1" xmlns="http://www.w3.org/2000/svg" xmlns:xlink="http://www.w3.org/1999/xlink" x="0px" y="0px"
	 viewBox="0 0 92 92" style="enable-background:new 0 0 92 92;-webkit-animation: rotation 2s infinite linear;" xml:space="preserve">
<style type="text/css">
	.st0{opacity:0.6;fill:#24E2DD;enable-background:new    ;}
	.st1{opacity:0.1;fill:#24E2DD;enable-background:new    ;}
	.st2{opacity:0.7;fill:#24E2DD;enable-background:new    ;}
	.st3{opacity:0.2;fill:#24E2DD;enable-background:new    ;}
	.st4{opacity:0.8;fill:#24E2DD;enable-background:new    ;}
	.st5{opacity:0.3;fill:#24E2DD;enable-background:new    ;}
	.st6{opacity:0.85;fill:#24E2DD;enable-background:new    ;}
	.st7{opacity:0.4;fill:#24E2DD;enable-background:new    ;}
	.st8{opacity:0.9;fill:#24E2DD;enable-background:new    ;}
	.st9{opacity:0.5;fill:#24E2DD;enable-background:new    ;}
	.st10{fill:#24E2DD;}
	.st11{opacity:0.55;fill:#24E2DD;enable-background:new    ;}
	@-webkit-keyframes rotation {
  from {
    -webkit-transform: rotate(0deg);
  }
  to {
    -webkit-transform: rotate(359deg);
  }
}
</style>
<g>
	<g id="Layer_1-2">
		<path class="st0" d="M20.8,77.6c1.7-2.9,5.3-3.9,8.2-2.2s3.9,5.3,2.2,8.2c-1.7,2.9-5.3,3.9-8.2,2.2C20.1,84.2,19.1,80.5,20.8,77.6
			C20.8,77.6,20.8,77.6,20.8,77.6z"/>
		<path class="st1" d="M60.8,8.4c-1.7,2.9-0.7,6.5,2.2,8.2c2.9,1.7,6.5,0.7,8.2-2.2c1.7-2.9,0.7-6.5-2.2-8.2
			C66.1,4.5,62.5,5.5,60.8,8.4C60.8,8.4,60.8,8.4,60.8,8.4z"/>
		<path class="st2" d="M8.4,60.8c2.9-1.7,6.5-0.7,8.2,2.2c1.7,2.9,0.7,6.5-2.2,8.2c-2.9,1.7-6.5,0.7-8.2-2.2
			C4.5,66.1,5.5,62.5,8.4,60.8C8.4,60.8,8.4,60.8,8.4,60.8z"/>
		<path class="st3" d="M77.6,20.8c-2.9,1.7-3.9,5.3-2.2,8.2s5.3,3.9,8.2,2.2c2.9-1.7,3.9-5.3,2.2-8.2C84.2,20.1,80.5,19.1,77.6,20.8
			C77.6,20.8,77.6,20.8,77.6,20.8z"/>
		<path class="st4" d="M6,40c3.3,0,6,2.7,6,6s-2.7,6-6,6s-6-2.7-6-6S2.7,40,6,40z"/>
		<path class="st5" d="M86,40c-3.3,0-6,2.7-6,6s2.7,6,6,6s6-2.7,6-6S89.3,40,86,40z"/>
		<path class="st6" d="M14.4,20.8c2.9,1.7,3.9,5.3,2.2,8.2s-5.3,3.9-8.2,2.2c-2.9-1.7-3.9-5.3-2.2-8.2C7.8,20.1,11.5,19.1,14.4,20.8
			C14.4,20.8,14.4,20.8,14.4,20.8z"/>
		<path class="st7" d="M83.6,60.8c-2.9-1.7-6.5-0.7-8.2,2.2c-1.7,2.9-0.7,6.5,2.2,8.2c2.9,1.7,6.5,0.7,8.2-2.2
			C87.5,66.1,86.5,62.5,83.6,60.8C83.6,60.8,83.6,60.8,83.6,60.8z"/>
		<path class="st8" d="M31.2,8.4c1.7,2.9,0.7,6.5-2.2,8.2c-2.9,1.7-6.5,0.7-8.2-2.2c-1.7-2.9-0.7-6.5,2.2-8.2
			C25.9,4.5,29.5,5.5,31.2,8.4C31.2,8.4,31.2,8.4,31.2,8.4z"/>
		<path class="st9" d="M71.2,77.6c-1.7-2.9-5.3-3.9-8.2-2.2c-2.9,1.7-3.9,5.3-2.2,8.2c1.7,2.9,5.3,3.9,8.2,2.2
			C71.9,84.2,72.9,80.5,71.2,77.6C71.2,77.6,71.2,77.6,71.2,77.6z"/>
		<circle class="st10" cx="46" cy="6" r="6"/>
		<circle class="st11" cx="46" cy="86" r="6"/>
	</g>
</g>
</svg>
