<?xml version="1.0" encoding="utf-8"?>
<!-- Generator: Adobe Illustrator 19.1.1, SVG Export Plug-In . SVG Version: 6.00 Build 0)  -->
<svg version="1.1" id="Layer_1" xmlns="http://www.w3.org/2000/svg" xmlns:xlink="http://www.w3.org/1999/xlink" x="0px" y="0px"
	 viewBox="-466 268 26 26" style="enable-background:new -466 268 26 26;" xml:space="preserve">
<style type="text/css">
	.st0{fill:#FFFFFF;}
</style>
<g transform="translate(-0.001)">
	<g transform="translate(0.001)">
		<path class="st0" d="M-453,272.3c-1.2,0-2.2,1-2.2,2.2s1,2.2,2.2,2.2s2.2-1,2.2-2.2c0,0,0,0,0,0
			C-450.8,273.3-451.8,272.3-453,272.3z M-453,275.6c-0.6,0-1.1-0.5-1.1-1.1c0-0.6,0.5-1.1,1.1-1.1c0.6,0,1.1,0.5,1.1,1.1l0,0
			C-451.9,275.1-452.4,275.6-453,275.6z"/>
		<path class="st0" d="M-451.4,277.7h-4.3c-0.3,0-0.5,0.2-0.5,0.5v0v2.2c0,0.3,0.2,0.5,0.5,0.5l0,0h0.5v8.1c0,0.3,0.2,0.5,0.5,0.5h0
			h3.3c0.3,0,0.5-0.2,0.5-0.5l0,0v-10.8C-450.8,278-451.1,277.7-451.4,277.7C-451.4,277.7-451.4,277.7-451.4,277.7z M-451.9,288.6
			h-2.2v-8.1c0-0.3-0.2-0.5-0.5-0.5l0,0h-0.5v-1.1h3.3V288.6L-451.9,288.6z"/>
		<path class="st0" d="M-453,268c-7.2,0-13,5.8-13,13c0,7.2,5.8,13,13,13c7.2,0,13-5.8,13-13l0,0C-440,273.8-445.8,268-453,268z
			 M-453,292.9c-6.6,0-11.9-5.3-11.9-11.9s5.3-11.9,11.9-11.9s11.9,5.3,11.9,11.9C-441.1,287.6-446.4,292.9-453,292.9z"/>
	</g>
</g>
</svg>
