<svg xmlns="http://www.w3.org/2000/svg" width="26.024" height="26.024" viewBox="0 0 26.024 26.024"><g transform="translate(-0.001)"><g transform="translate(0.001)"><path d="M215.5,85.333A2.169,2.169,0,1,0,217.67,87.5,2.171,2.171,0,0,0,215.5,85.333Zm0,3.253a1.084,1.084,0,1,1,1.084-1.084A1.086,1.086,0,0,1,215.5,88.586Z" transform="translate(-202.49 -80.996)"/><path d="M196.88,192h-4.337a.542.542,0,0,0-.542.542v2.169a.542.542,0,0,0,.542.542h.542v8.132a.542.542,0,0,0,.542.542h3.253a.542.542,0,0,0,.542-.542V192.542A.542.542,0,0,0,196.88,192Zm-.542,10.843h-2.169v-8.132a.542.542,0,0,0-.542-.542h-.542v-1.084h3.253v9.759Z" transform="translate(-182.241 -182.241)"/><path d="M13.012,0A13.012,13.012,0,1,0,26.024,13.012,13.027,13.027,0,0,0,13.012,0Zm0,24.94A11.928,11.928,0,1,1,24.94,13.012,11.941,11.941,0,0,1,13.012,24.94Z"/></g></g></svg>