<?xml version="1.0" encoding="utf-8"?>
<!-- Generator: Adobe Illustrator 19.1.1, SVG Export Plug-In . SVG Version: 6.00 Build 0)  -->
<svg version="1.1" id="Layer_1" xmlns="http://www.w3.org/2000/svg" xmlns:xlink="http://www.w3.org/1999/xlink" x="0px" y="0px"
	 viewBox="0 0 336 336" style="enable-background:new 0 0 336 336;" xml:space="preserve">
<style type="text/css">
	.st0{fill:#1E1E1E;}
</style>
<g>
	<path class="st0" d="M168,16.8c83.4,0,151.2,67.8,151.2,151.2S251.4,319.2,168,319.2S16.8,251.4,16.8,168S84.6,16.8,168,16.8
		 M168,0C75.2,0,0,75.2,0,168s75.2,168,168,168s168-75.2,168-168S260.8,0,168,0L168,0z M168,0"/>
</g>
<g>
	<path class="st0" d="M132.5,241.9c-1.5,0-3-0.4-4.4-1.1c-2.8-1.6-4.6-4.6-4.6-7.9V103.1c0-3.3,1.8-6.3,4.6-7.9
		c2.8-1.6,6.3-1.5,9.1,0.2l105.5,64.9c2.7,1.6,4.3,4.5,4.3,7.7c0,3.1-1.6,6-4.3,7.7l-105.5,64.9
		C135.8,241.4,134.2,241.9,132.5,241.9z M141.5,119.2v97.5l79.3-48.8L141.5,119.2z"/>
</g>
</svg>
