<svg xmlns="http://www.w3.org/2000/svg" width="24" height="24" viewBox="0 0 24 24"><defs><style>.a,.b{fill:#0f2231;}.a{opacity:0;}</style></defs><g transform="translate(12 12)"><g transform="translate(-12 -12)"><rect class="a" width="24" height="24" transform="translate(24) rotate(90)"/><path class="b" d="M22.56,16.3,14.89,3.58a3.43,3.43,0,0,0-5.78,0L1.44,16.3a3,3,0,0,0-.05,3A3.37,3.37,0,0,0,4.33,21H19.67a3.37,3.37,0,0,0,2.94-1.66,3,3,0,0,0-.05-3.04ZM12,17a1,1,0,1,1,1-1A1,1,0,0,1,12,17Zm1-4a1,1,0,0,1-2,0V9a1,1,0,0,1,2,0Z"/></g></g></svg>