<?xml version="1.0" encoding="utf-8"?>
<!-- Generator: Adobe Illustrator 19.1.1, SVG Export Plug-In . SVG Version: 6.00 Build 0)  -->
<svg version="1.1" id="Layer_1" xmlns="http://www.w3.org/2000/svg" xmlns:xlink="http://www.w3.org/1999/xlink" x="0px" y="0px"
	 width="34" height="34" viewBox="-463 265.6 32 30.4" style="enable-background:new -463 265.6 32 30.4;" xml:space="preserve">
<style type="text/css">
	.st0{fill:none;}
	.st1{fill:#0F2231;}
</style>
<g>
	<path class="st0" d="M-460.4,293L-460.4,293l26.9,0.1v-16.2h-26.9V293z M-453.7,279.3h13.4c0.6,0.1,1,0.5,1.1,1.1
		c0.1,0.7-0.4,1.3-1.1,1.4h-13.4c-0.6-0.1-1-0.5-1.1-1.1C-454.9,280-454.4,279.4-453.7,279.3z M-453.7,286h13.4
		c0.6,0.1,1,0.6,1.1,1.1c0.1,0.7-0.4,1.3-1.1,1.4h-13.4c-0.6-0.1-1-0.5-1.1-1.1C-454.9,286.7-454.4,286.1-453.7,286z"/>
	<path class="st0" d="M-433.6,270.6h-4.1v0.6c0,0.6-0.5,1.2-1.1,1.2c-0.6,0-1.1-0.6-1.2-1.2v-0.6h-14.2v0.6c0,0.6-0.5,1.2-1.1,1.2
		c-0.6,0-1.1-0.6-1.1-1.2v-0.6h-4.1v3.9h26.9V270.6z"/>
	<path class="st0" d="M-431,269.7v24.1c0.1-0.2,0.1-0.5,0.1-0.7v-22.5C-430.9,270.3-430.9,270-431,269.7z"/>
	<path class="st1" d="M-453.7,281.8h13.4c0.7-0.1,1.2-0.7,1.1-1.4c-0.1-0.6-0.5-1-1.1-1.1h-13.4c-0.7,0.1-1.2,0.7-1.1,1.4
		C-454.7,281.3-454.3,281.7-453.7,281.8z"/>
	<path class="st1" d="M-433.5,267.7h-4.1v-1c-0.1-0.7-0.6-1.2-1.2-1.2s-1.1,0.6-1.1,1.2v1h-14.2v-1c0-0.6-0.5-1.2-1.1-1.2
		c-0.7,0-1.1,0.6-1.1,1.2v1h-4.1c-1.5,0.1-2.6,1.4-2.6,2.9v22.5c-0.1,1.5,1.1,2.8,2.6,2.9h26.9c1.2-0.1,2.2-1,2.5-2.2v-24.1
		C-431.3,268.6-432.3,267.8-433.5,267.7z M-460.5,274.5v-3.9h4.1v0.6c0,0.6,0.5,1.2,1.1,1.2c0.6,0,1.1-0.6,1.1-1.2v-0.6h14.2v0.6
		c0.1,0.6,0.6,1.2,1.2,1.2c0.6,0,1.1-0.6,1.1-1.2v-0.6h4.1v3.9H-460.5z M-433.5,293.1h-26.9V293v-16.1h26.9V293.1z"/>
	<path class="st1" d="M-453.7,288.5h13.4c0.7-0.1,1.2-0.7,1.1-1.4c-0.1-0.5-0.5-1-1.1-1.1h-13.4c-0.7,0.1-1.2,0.7-1.1,1.4
		C-454.7,288-454.3,288.4-453.7,288.5z"/>
</g>
</svg>
