<?xml version="1.0" encoding="utf-8"?>
<!-- Generator: Adobe Illustrator 19.1.1, SVG Export Plug-In . SVG Version: 6.00 Build 0)  -->
<svg version="1.1" id="Layer_1" xmlns="http://www.w3.org/2000/svg" xmlns:xlink="http://www.w3.org/1999/xlink" x="0px" y="0px"
	 viewBox="-466 266.3 26 28.7" style="enable-background:new -466 266.3 26 28.7;" xml:space="preserve">
<style type="text/css">
	.st0{fill:none;stroke:#0F2231;stroke-width:2;stroke-linecap:round;stroke-linejoin:round;}
</style>
<g transform="translate(1 1)">
	<path class="st0" d="M-463.3,269.3h18.7c1.5,0,2.7,1.2,2.7,2.6c0,0,0,0,0,0v18.4c0,1.5-1.2,2.6-2.7,2.6c0,0,0,0,0,0h-18.7
		c-1.5,0-2.7-1.2-2.7-2.6c0,0,0,0,0,0V272C-466,270.5-464.8,269.3-463.3,269.3C-463.3,269.3-463.3,269.3-463.3,269.3z"/>
	<path class="st0" d="M-448.7,266.3v6"/>
	<path class="st0" d="M-459.3,266.3v6"/>
	<path class="st0" d="M-466,277h24"/>
</g>
</svg>
