<?xml version="1.0" encoding="utf-8"?>
<!-- Generator: Adobe Illustrator 19.1.1, SVG Export Plug-In . SVG Version: 6.00 Build 0)  -->
<svg version="1.1" id="Layer_1" xmlns="http://www.w3.org/2000/svg" xmlns:xlink="http://www.w3.org/1999/xlink" x="0px" y="0px"
	 width="34" height="34" viewBox="-463 265 32 32" style="enable-background:new -463 265 32 32;" xml:space="preserve">
<style type="text/css">
	.st0{fill:none;}
	.st1{fill:#00AFCC;}
</style>
<path class="st0" d="M-463,265h32v32h-32V265z M-463,265h32v32h-32V265z M-463,265h32v32h-32V265z"/>
<path class="st1" d="M-435.8,265h-22.4v2.7h22.4V265z M-458.2,297h22.4v-2.7h-22.4V297z M-435.8,270.3h-22.4c-1.5,0-2.8,1.2-2.8,2.7
	v16c0,1.5,1.3,2.7,2.8,2.7h22.4c1.5,0,2.8-1.2,2.8-2.7v-16C-433,271.5-434.3,270.3-435.8,270.3z M-447,274c1.7,0,3.1,1.3,3.1,3
	c-0.1,1.7-1.6,3.1-3.3,3c-1.6-0.1-2.9-1.4-3-3C-450.1,275.3-448.7,274-447,274z M-440,287.7h-14v-2c0-2.2,4.7-3.3,7-3.3s7,1.1,7,3.3
	V287.7z"/>
</svg>
