<?xml version="1.0" encoding="utf-8"?>
<!-- Generator: Adobe Illustrator 19.1.1, SVG Export Plug-In . SVG Version: 6.00 Build 0)  -->
<svg version="1.1" id="Layer_1" xmlns="http://www.w3.org/2000/svg" xmlns:xlink="http://www.w3.org/1999/xlink" x="0px" y="0px"
	 viewBox="-465 264.7 27.1 33.3" style="enable-background:new -465 264.7 27.1 33.3;" xml:space="preserve">
<style type="text/css">
	.st0{fill:none;stroke:#00AFCC;stroke-width:2;stroke-linecap:round;stroke-linejoin:round;}
</style>
<g transform="translate(1 1)">
	<path class="st0" d="M-446.2,268.2h3.1c1.7,0,3.1,1.4,3.1,3.1c0,0,0,0,0,0v21.6c0,1.7-1.4,3.1-3.1,3.1c0,0,0,0,0,0h-18.8
		c-1.7,0-3.1-1.4-3.1-3.1c0,0,0,0,0,0v-21.6c0-1.7,1.4-3.1,3.1-3.1c0,0,0,0,0,0h3.1"/>
	<path class="st0" d="M-457.1,264.7h8.7c0.9,0.1,1.5,0.9,1.4,1.7v3.5c0.1,0.9-0.6,1.7-1.4,1.7h-8.7c-0.9-0.1-1.5-0.9-1.5-1.7v-3.5
		C-458.6,265.5-458,264.8-457.1,264.7z"/>
</g>
</svg>
