<?xml version="1.0" encoding="utf-8"?>
<!-- Generator: Adobe Illustrator 19.1.1, SVG Export Plug-In . SVG Version: 6.00 Build 0)  -->
<svg version="1.1" id="Layer_1" xmlns="http://www.w3.org/2000/svg" xmlns:xlink="http://www.w3.org/1999/xlink" x="0px" y="0px"
	 viewBox="-467 263.1 24.4 34.9" style="enable-background:new -467 263.1 24.4 34.9;" xml:space="preserve">
<style type="text/css">
	.st0{fill:#00AFCC;enable-background:new    ;}
</style>
<path class="st0" d="M-456.2,264.5v32.1c0,0.8,0.6,1.4,1.4,1.4s1.4-0.6,1.4-1.4v-32.1c0-0.8-0.6-1.4-1.4-1.4
	S-456.2,263.7-456.2,264.5"/>
<path class="st0" d="M-445.4,275.6v21c0,0.8,0.6,1.4,1.4,1.4s1.4-0.6,1.4-1.4v-21c0-0.8-0.6-1.4-1.4-1.4
	C-444.7,274.2-445.4,274.8-445.4,275.6"/>
<path class="st0" d="M-467,283.6v13c0,0.8,0.6,1.4,1.4,1.4s1.4-0.6,1.4-1.4v-13c0-0.8-0.6-1.4-1.4-1.4S-467,282.8-467,283.6"/>
</svg>
