<?xml version="1.0" encoding="utf-8"?>
<!-- Generator: Adobe Illustrator 19.1.1, SVG Export Plug-In . SVG Version: 6.00 Build 0)  -->
<svg version="1.1" id="Layer_1" xmlns="http://www.w3.org/2000/svg" xmlns:xlink="http://www.w3.org/1999/xlink" x="0px" y="0px"
	 viewBox="-466 269.5 27 22.5" style="enable-background:new -466 269.5 27 22.5;" xml:space="preserve">
<style type="text/css">
	.st0{fill:none;stroke:#0F2231;stroke-width:2;stroke-linecap:round;stroke-linejoin:round;}
</style>
<g transform="translate(1 1.069)">
	<path class="st0" d="M-447.8,289.9v-2.3c0-2.5-2-4.5-4.5-4.5c0,0,0,0,0,0h-9.1c-2.5,0-4.5,2-4.5,4.5v2.3"/>
	<path class="st0" d="M-452.4,274c0,2.5-2,4.5-4.5,4.5s-4.5-2-4.5-4.5c0-2.5,2-4.5,4.5-4.5C-454.4,269.5-452.4,271.5-452.4,274
		C-452.4,274-452.4,274-452.4,274z"/>
	<path class="st0" d="M-441,289.9v-2.3c0-2.1-1.4-3.9-3.4-4.4"/>
	<path class="st0" d="M-449,269.6c2.4,0.6,3.9,3.1,3.3,5.5c-0.4,1.6-1.7,2.8-3.3,3.3"/>
</g>
</svg>
