<svg xmlns="http://www.w3.org/2000/svg" width="27" height="27" viewBox="0 0 27 27"><defs><style>.a,.b{fill:#0f2231;}.b{stroke:rgba(0,0,0,0);stroke-width:2px;}</style></defs><path class="a" d="M16.875,5.192a11.678,11.678,0,1,1-8.262,3.42,11.605,11.605,0,0,1,8.262-3.42m0-1.817a13.5,13.5,0,1,0,13.5,13.5,13.5,13.5,0,0,0-13.5-13.5Z" transform="translate(-3.375 -3.375)"/><path class="b" d="M5.162,16.632q-.042-.42-.042-.567a3.589,3.589,0,0,1,.42-1.753,10.664,10.664,0,0,1,1.2-1.691,10.7,10.7,0,0,0,.924-1.26,2.129,2.129,0,0,0,.315-1.113,1.832,1.832,0,0,0-.483-1.323,1.8,1.8,0,0,0-1.365-.5A3.029,3.029,0,0,0,3.86,9.555l-1.2-1.092A4.853,4.853,0,0,1,6.38,6.678a3.807,3.807,0,0,1,2.657.9,3.226,3.226,0,0,1,1,2.52,3.073,3.073,0,0,1-.378,1.533,10.864,10.864,0,0,1-1.134,1.575,9.426,9.426,0,0,0-1.134,1.533,3.03,3.03,0,0,0-.378,1.512,2.5,2.5,0,0,0,.021.378Zm.966,4.62a1.365,1.365,0,0,1-1.019-.42,1.471,1.471,0,0,1-.41-1.071,1.507,1.507,0,0,1,.41-1.081,1.42,1.42,0,0,1,2.037,0,1.507,1.507,0,0,1,.41,1.081,1.471,1.471,0,0,1-.41,1.071A1.365,1.365,0,0,1,6.128,21.252Z" transform="translate(7.625 -0.121)"/></svg>