<?xml version="1.0" encoding="utf-8"?>
<!-- Generator: Adobe Illustrator 19.1.1, SVG Export Plug-In . SVG Version: 6.00 Build 0)  -->
<svg version="1.1" id="Capa_1" xmlns="http://www.w3.org/2000/svg" xmlns:xlink="http://www.w3.org/1999/xlink" x="0px" y="0px"
	 viewBox="-457 250 49 57.5" style="enable-background:new -457 250 49 57.5;" xml:space="preserve">
<style type="text/css">
	.st0{fill:#848E95;stroke:#848E95;stroke-width:2;stroke-miterlimit:10;}
</style>
<g>
	<path class="st0" d="M-420,271.4h-25c-0.6,0-1,0.4-1,0.9c0,0.6,0.4,0.9,1,0.9h25c0.6,0,1-0.4,1-0.9
		C-419,271.7-419.4,271.4-420,271.4z"/>
	<path class="st0" d="M-445,265.8h10c0.6,0,1-0.4,1-0.9s-0.4-0.9-1-0.9h-10c-0.6,0-1,0.4-1,0.9S-445.6,265.8-445,265.8z"/>
	<path class="st0" d="M-420,278.8h-25c-0.6,0-1,0.4-1,0.9c0,0.6,0.4,0.9,1,0.9h25c0.6,0,1-0.4,1-0.9
		C-419,279.1-419.4,278.8-420,278.8z"/>
	<path class="st0" d="M-420,286.1h-25c-0.6,0-1,0.4-1,0.9c0,0.6,0.4,0.9,1,0.9h25c0.6,0,1-0.4,1-0.9
		C-419,286.5-419.4,286.1-420,286.1z"/>
	<path class="st0" d="M-420,293.5h-25c-0.6,0-1,0.4-1,0.9c0,0.6,0.4,0.9,1,0.9h25c0.6,0,1-0.4,1-0.9
		C-419,293.9-419.4,293.5-420,293.5z"/>
	<path class="st0" d="M-424.9,251H-449c-3.9,0-7,2.9-7,6.5V300c0,3.6,3.1,6.5,7,6.5h33c3.9,0,7-2.9,7-6.5v-34.3c0-0.7-0.3-1.5-0.9-2
		l-12.8-11.8C-423.3,251.3-424,251-424.9,251z M-417.7,259L-417.7,259c2,1.9,0.7,4.9-2.1,4.9h-0.1c-1.7,0-3.1-1.3-3.1-2.9l0,0
		C-423,258.5-419.6,257.2-417.7,259z M-454,298.2v-38.9c0-3.6,3.1-6.5,7-6.5h15c3.9,0,7,2.9,7,6.5v0c0,3.6,3.1,6.5,7,6.5l0,0
		c3.9,0,7,2.9,7,6.5v25.9c0,3.6-3.1,6.5-7,6.5h-29C-450.9,304.6-454,301.7-454,298.2z"/>
</g>
</svg>
