<svg xmlns="http://www.w3.org/2000/svg" width="27" height="18" viewBox="0 0 27 18"><defs><style>.a{fill:#0f2231;}</style></defs><path class="a" d="M11.875,45a4.5,4.5,0,1,0-4.5-4.5A4.5,4.5,0,0,0,11.875,45Zm-6.3,9h12.6a1.474,1.474,0,0,0,1.575-1.35V51.3c0-2.236-2.116-4.05-4.725-4.05-.759,0-1.315.563-3.15.563-1.891,0-2.348-.562-3.15-.562C6.116,47.25,4,49.064,4,51.3v1.35A1.474,1.474,0,0,0,5.575,54Zm16.988-4.5h7.875A.564.564,0,0,0,31,48.938V47.813a.564.564,0,0,0-.562-.562H22.563a.564.564,0,0,0-.563.563v1.125A.564.564,0,0,0,22.563,49.5Zm0-4.5h7.875A.564.564,0,0,0,31,44.438V43.313a.564.564,0,0,0-.562-.562H22.563a.564.564,0,0,0-.563.563v1.125A.564.564,0,0,0,22.563,45Zm0-4.5h7.875A.564.564,0,0,0,31,39.938V38.813a.564.564,0,0,0-.562-.563H22.563a.564.564,0,0,0-.563.563v1.125A.564.564,0,0,0,22.563,40.5Z" transform="translate(-4 -36)"/></svg>