<svg xmlns="http://www.w3.org/2000/svg" width="16" height="10.667" viewBox="0 0 16 10.667"><defs><style>.a{fill:#00afcc;}</style></defs><path class="a" d="M8.667,41.333A2.667,2.667,0,1,0,6,38.667,2.669,2.669,0,0,0,8.667,41.333ZM4.933,46.667H12.4a.874.874,0,0,0,.933-.8v-.8a2.624,2.624,0,0,0-2.8-2.4A10.06,10.06,0,0,1,8.667,43,9.913,9.913,0,0,1,6.8,42.667a2.624,2.624,0,0,0-2.8,2.4v.8A.874.874,0,0,0,4.933,46.667ZM15,44h4.667A.334.334,0,0,0,20,43.667V43a.334.334,0,0,0-.333-.333H15a.334.334,0,0,0-.333.333v.667A.334.334,0,0,0,15,44Zm0-2.667h4.667A.334.334,0,0,0,20,41v-.667A.334.334,0,0,0,19.667,40H15a.334.334,0,0,0-.333.333V41A.334.334,0,0,0,15,41.333Zm0-2.667h4.667A.334.334,0,0,0,20,38.333v-.667a.334.334,0,0,0-.333-.333H15a.334.334,0,0,0-.333.333v.667A.334.334,0,0,0,15,38.667Z" transform="translate(-4 -36)"/></svg>