<svg xmlns="http://www.w3.org/2000/svg" width="17" height="17" viewBox="0 0 17 17"><defs><style>.a{fill:#0f2231;}</style></defs><path class="a" d="M2.166,15A2.212,2.212,0,0,1,0,12.75V2.25A2.212,2.212,0,0,1,2.166,0H7.944A5.161,5.161,0,0,1,13,5.25v7.5A2.212,2.212,0,0,1,10.834,15ZM1.444,2.25v10.5a.737.737,0,0,0,.722.75h8.667a.737.737,0,0,0,.722-.75V5.25H7.222V1.5H2.166A.737.737,0,0,0,1.444,2.25Zm7.222,1.5h2.589A3.65,3.65,0,0,0,8.666,1.575ZM2.889,12V10.5h7.223V12Zm0-3V7.5h7.223V9Zm0-3V4.5H5.778V6Z" transform="translate(2 1)"/></svg>