<svg xmlns="http://www.w3.org/2000/svg" width="16.5" height="17.417" viewBox="0 0 16.5 17.417"><defs><style>.a{fill:#637280;}</style></defs><path class="a" d="M4.584,17.417a2.753,2.753,0,0,1-2.751-2.75V4.584H.917a.917.917,0,0,1,0-1.834h2.75V1.833A1.836,1.836,0,0,1,5.5,0H11a1.836,1.836,0,0,1,1.834,1.833V2.75h2.75a.917.917,0,0,1,0,1.834h-.917V14.667a2.753,2.753,0,0,1-2.751,2.75Zm-.917-2.75a.918.918,0,0,0,.917.917h7.333a.918.918,0,0,0,.917-.917V4.584H3.666ZM5.5,2.75H11V1.833H5.5Zm3.666,11V6.417H11V13.75Zm-3.666,0V6.417H7.333V13.75Z"/></svg>