<?xml version="1.0" encoding="utf-8"?>
<!-- Generator: Adobe Illustrator 19.1.1, SVG Export Plug-In . SVG Version: 6.00 Build 0)  -->
<svg version="1.1" id="Layer_1" xmlns="http://www.w3.org/2000/svg" xmlns:xlink="http://www.w3.org/1999/xlink" x="0px" y="0px"
	 viewBox="-472 273 15 15" style="enable-background:new -472 273 15 15;" xml:space="preserve">
<style type="text/css">
	.st0{fill:#FCB333;}
</style>
<path class="st0" d="M-457.2,287l-3.6-3.6c2.2-2.7,1.9-6.6-0.8-8.9c-2.7-2.2-6.6-1.9-8.9,0.8c-2.2,2.7-1.9,6.6,0.8,8.9
	c2.3,1.9,5.7,1.9,8,0l3.6,3.6c0.2,0.2,0.6,0.2,0.8,0S-457,287.2-457.2,287z M-470.8,279.3c0-2.8,2.3-5.1,5.1-5.1s5.1,2.3,5.1,5.1
	s-2.3,5.1-5.1,5.1C-468.5,284.5-470.8,282.2-470.8,279.3z"/>
</svg>
