<svg xmlns="http://www.w3.org/2000/svg" width="138.402" height="42" viewBox="0 0 138.402 42"><defs><style>.a{fill:#fff;}.b{fill:#fcb333;}</style></defs><g transform="translate(0 -0.495)"><path class="a" d="M1112.436,2335.242v-10.9h5.192c3.421,0,5.151,2.3,5.151,5.452s-1.731,5.452-5.151,5.452Zm114.376,0v-10.9H1232c3.42,0,5.151,2.3,5.151,5.452s-1.731,5.452-5.151,5.452Zm16.782-5.452c0-6.036-4.95-10.632-11.148-10.632h-12.073v29.208h6.439v-7.944h4.91l5.513,7.944h7.164l-6.479-9.269A10.391,10.391,0,0,0,1243.594,2329.79Zm-105.643,18.576h8.25v-5.573h-5.962l2.139-5.1,3.823-9.268,1.911,4.634h0l1.911,4.634,2.174,5.18,1.127,2.746,1.127,2.746h6.318l-11.993-29.208h-5.152l-11.992,29.208h6.318Zm73.688,0h6.319l-11.993-29.208h-5.152l-11.993,29.208h14.569v-5.573h-5.962l2.139-5.1,3.823-9.268,1.911,4.634h0l1.911,4.634,2.173,5.18,1.127,2.746Zm-36.784-5.18h-5.634v-18.848h5.634c4.91.078,8.331,4.712,8.331,9.424S1179.806,2343.148,1174.856,2343.186Zm14.77-9.424a14.7,14.7,0,0,0-14.73-14.6h-12.114v29.208H1174.9A14.673,14.673,0,0,0,1189.626,2333.762Zm-60.407-3.972c0-6.036-4.95-10.632-11.148-10.632H1106v29.208h6.439v-7.944h4.91l5.513,7.944h7.164l-6.479-9.269A10.391,10.391,0,0,0,1129.219,2329.79Z" transform="translate(-1105.997 -2305.871)"/><path class="b" d="M1639.061,2072.817a15.36,15.36,0,0,1,9.544,27.4l-.98-2.465c.177-.159.349-.321.517-.489a12.844,12.844,0,1,0-18.164,0q.252.252.516.488l-.979,2.466a15.361,15.361,0,0,1,9.545-27.4" transform="translate(-1598.899 -2072.323)"/><path class="b" d="M1709.776,2147.456a11.311,11.311,0,0,1,8.087,3.405,11.757,11.757,0,0,1,0,16.437l0,0,0,0-.077.077-1.031-2.639a9.187,9.187,0,0,0-.667-12.071,8.825,8.825,0,0,0-12.618,0,9.187,9.187,0,0,0-.663,12.069l-1.034,2.646-.08-.081a11.757,11.757,0,0,1,0-16.437l.005-.005a11.306,11.306,0,0,1,8.082-3.405" transform="translate(-1669.614 -2143.227)"/><path class="b" d="M1782.93,2224.671a7.379,7.379,0,0,1,6.293,11.23l-1.438-3.618c0-.078.006-.156.006-.235a4.861,4.861,0,0,0-9.722,0c0,.078,0,.156.006.233l-1.438,3.619a7.378,7.378,0,0,1,6.293-11.229" transform="translate(-1742.768 -2216.093)"/></g></svg>