<svg xmlns="http://www.w3.org/2000/svg" width="18.111" height="18.111" viewBox="0 0 18.111 18.111"><defs><style>.a{fill:#e51515;}.b{fill:#fafafa;}</style></defs><path class="a" d="M9.056,0a9.056,9.056,0,1,0,9.056,9.056A9.066,9.066,0,0,0,9.056,0Zm0,0"/><path class="b" d="M162.362,161.295a.755.755,0,1,1-1.067,1.067l-2.268-2.268-2.268,2.268a.755.755,0,1,1-1.067-1.067l2.268-2.268-2.268-2.268a.755.755,0,1,1,1.067-1.067l2.268,2.268,2.268-2.268a.755.755,0,0,1,1.067,1.067l-2.268,2.268Zm0,0" transform="translate(-149.972 -149.972)"/></svg>