<svg xmlns="http://www.w3.org/2000/svg" width="49" height="49" viewBox="0 0 49 49"><defs><style>.a,.b{fill:#24bad2;}.a{opacity:0.1;}</style></defs><g transform="translate(16.344 14.723)"><circle class="a" cx="24.5" cy="24.5" r="24.5" transform="translate(-16.344 -14.723)"/><path class="b" d="M91.742,9.42a4.557,4.557,0,0,0,3.33-1.38,4.557,4.557,0,0,0,1.38-3.33,4.558,4.558,0,0,0-1.38-3.33,4.709,4.709,0,0,0-6.66,0,4.557,4.557,0,0,0-1.38,3.33,4.557,4.557,0,0,0,1.38,3.33A4.558,4.558,0,0,0,91.742,9.42Zm0,0" transform="translate(-83.708)"/><path class="b" d="M16.274,252.907a11.633,11.633,0,0,0-.158-1.236,9.735,9.735,0,0,0-.3-1.242,6.136,6.136,0,0,0-.511-1.159,4.372,4.372,0,0,0-.77-1,3.4,3.4,0,0,0-1.106-.7,3.823,3.823,0,0,0-1.412-.256,1.433,1.433,0,0,0-.765.325c-.229.15-.5.323-.8.514a4.569,4.569,0,0,1-1.032.455,4.007,4.007,0,0,1-2.524,0,4.559,4.559,0,0,1-1.031-.454c-.3-.19-.565-.363-.8-.514a1.431,1.431,0,0,0-.765-.325,3.818,3.818,0,0,0-1.412.256,3.392,3.392,0,0,0-1.106.7,4.373,4.373,0,0,0-.77,1A6.148,6.148,0,0,0,.5,250.429a9.758,9.758,0,0,0-.3,1.242,11.592,11.592,0,0,0-.158,1.236c-.026.374-.039.762-.039,1.155a3.247,3.247,0,0,0,.964,2.457,3.472,3.472,0,0,0,2.485.906h9.415a3.471,3.471,0,0,0,2.485-.906,3.246,3.246,0,0,0,.964-2.457c0-.394-.013-.783-.04-1.155Zm0,0" transform="translate(0 -237.871)"/></g></svg>