<svg xmlns="http://www.w3.org/2000/svg" width="232.535" height="217.834" viewBox="0 0 232.535 217.834"><defs><style>.a{opacity:0.3;}.b{fill:#3e479b;}.c{fill:#6d6cd4;}.d,.e,.l{fill:#fff;}.d{opacity:0.12;}.f{fill:#f28393;}.g{fill:#c5d9ff;}.h{fill:#599af2;}.i{opacity:0.35;}.j{fill:#ecf1f7;}.k{fill:#4c65ba;opacity:0.36;}.l{opacity:0.47;}.m{fill:#6081a8;opacity:0.79;}</style></defs><g class="a"><g transform="translate(0 0)"><g transform="translate(0 73.291)"><g transform="translate(149.529 0)"><path class="b" d="M378.546,158.019H349.728a3.091,3.091,0,0,0-2.859,2.345l-.955,3.167a3.092,3.092,0,0,1-2.859,2.345H301.8a3.284,3.284,0,0,0-3.027,3.492h0v46.71a3.285,3.285,0,0,0,3.027,3.493h76.747a3.37,3.37,0,0,0,3.232-3.493V161.512A3.37,3.37,0,0,0,378.546,158.019Z" transform="translate(-298.772 -158.019)"/><path class="c" d="M349.1,167.958l1.019-3.167a3.259,3.259,0,0,1,3.052-2.345h25.371a3.37,3.37,0,0,1,3.232,3.493v54.568A3.37,3.37,0,0,1,378.546,224H302a3.37,3.37,0,0,1-3.231-3.492V173.8A3.37,3.37,0,0,1,302,170.3h44.048A3.26,3.26,0,0,0,349.1,167.958Z" transform="translate(-298.772 -159.607)"/><path class="d" d="M353.649,173.156l.96-2.986a3.073,3.073,0,0,1,2.878-2.211H381.4a3.176,3.176,0,0,1,3.046,3.292v51.434a3.176,3.176,0,0,1-3.046,3.292H309.254a3.176,3.176,0,0,1-3.046-3.292V178.658a3.176,3.176,0,0,1,3.046-3.292h41.518A3.072,3.072,0,0,0,353.649,173.156Z" transform="translate(-301.44 -161.586)"/><path class="e" d="M403.64,241.585H384.706a.641.641,0,1,1,0-1.282H403.64a2.218,2.218,0,0,0,2.215-2.216v-15.02a.641.641,0,0,1,1.282,0v15.02A3.5,3.5,0,0,1,403.64,241.585Z" transform="translate(-329.379 -181.131)"/></g><g transform="translate(0 53.124)"><path class="f" d="M68.808,240.875h29a3.211,3.211,0,0,1,2.877,2.638l.961,3.563a3.211,3.211,0,0,0,2.878,2.638H146.05c1.682,0,3.046,1.759,3.046,3.929h0v52.544c0,2.17-1.364,3.929-3.046,3.929H68.808c-1.8,0-3.253-1.759-3.253-3.929V244.8C65.555,242.634,67.011,240.875,68.808,240.875Z" transform="translate(-65.555 -240.875)"/><path class="d" d="M98.44,252.055l-1.026-3.563a3.36,3.36,0,0,0-3.072-2.638H68.808c-1.8,0-3.253,1.759-3.253,3.929v61.383c0,2.17,1.456,3.929,3.253,3.929h77.036c1.8,0,3.253-1.759,3.253-3.929V258.623c0-2.17-1.456-3.929-3.253-3.929H101.512A3.36,3.36,0,0,1,98.44,252.055Z" transform="translate(-65.555 -242.662)"/><path class="d" d="M96.551,257.9l-.967-3.358a3.167,3.167,0,0,0-2.9-2.486H68.62c-1.693,0-3.065,1.658-3.065,3.7v57.858c0,2.045,1.373,3.7,3.065,3.7h72.612c1.693,0,3.065-1.658,3.065-3.7V264.092c0-2.045-1.372-3.7-3.065-3.7H99.447A3.166,3.166,0,0,1,96.551,257.9Z" transform="translate(-65.555 -244.888)"/><path class="e" d="M74.477,269.49a.61.61,0,0,1-.574-.641v-8.9a2.084,2.084,0,0,1,1.956-2.186H87.813a.645.645,0,0,1,0,1.282H75.859a.861.861,0,0,0-.809.9v8.9A.61.61,0,0,1,74.477,269.49Z" transform="translate(-68.551 -246.935)"/></g></g><g transform="translate(39.34)"><g transform="translate(14.696)"><g transform="translate(0 18.242)"><rect class="g" width="131.944" height="49.549" rx="24.775" transform="translate(0 31.054)"/><circle class="h" cx="34.843" cy="34.843" r="34.843" transform="translate(31.129)"/></g><rect class="h" width="131.944" height="49.549" rx="24.775" transform="translate(0 41.997)"/><circle class="h" cx="34.843" cy="34.843" r="34.843" transform="translate(20.186 27.573) rotate(-23.309)"/><g class="i"><rect class="j" width="131.944" height="49.549" rx="24.775" transform="translate(0 41.997)"/><circle class="j" cx="34.843" cy="34.843" r="34.843" transform="translate(20.186 27.573) rotate(-23.309)"/></g><g transform="translate(46.611 39.034)"><g transform="translate(9.61)"><path class="e" d="M239.122,116.527A1.6,1.6,0,0,1,238,113.781l9.351-9.192,9.2,9.2a1.6,1.6,0,0,1-2.266,2.266L247.33,109.1l-7.084,6.964A1.6,1.6,0,0,1,239.122,116.527Z" transform="translate(-237.52 -104.589)"/><path class="e" d="M251.83,129.642a1.6,1.6,0,0,1-1.6-1.6V107.212a1.6,1.6,0,1,1,3.206,0v20.827A1.6,1.6,0,0,1,251.83,129.642Z" transform="translate(-242.08 -104.955)"/></g><path class="e" d="M257.043,149.188H226.5a3.975,3.975,0,0,1-3.971-3.971v-11.1a1.6,1.6,0,1,1,3.206,0v11.1a.766.766,0,0,0,.765.765h30.541a1,1,0,0,0,1-1V134.122a1.6,1.6,0,1,1,3.206,0v10.856A4.215,4.215,0,0,1,257.043,149.188Z" transform="translate(-222.531 -114.611)"/></g></g><g transform="translate(0 80.01)"><path class="k" d="M260.243,270.567l-87.405,28.878a4.076,4.076,0,0,1-5.149-2.591L138.81,209.449A4.076,4.076,0,0,1,141.4,204.3l87.406-28.878a4.075,4.075,0,0,1,5.149,2.592l28.878,87.405A4.076,4.076,0,0,1,260.243,270.567Z" transform="translate(-131.107 -170.909)"/><rect class="e" width="100.205" height="100.205" rx="6.357" transform="translate(0 31.436) rotate(-18.283)"/><g transform="translate(10.725 10.798)"><rect class="g" width="83.137" height="83.137" transform="translate(0 26.082) rotate(-18.283)"/><path class="l" d="M179.968,313.474,174.063,295.6l8.637-20.819a5.977,5.977,0,0,1,7.325-3.433l15.988,4.966a2.134,2.134,0,0,0,2.47-.941l13.311-22.154a11.061,11.061,0,0,1,13.8-4.448l14.66,6.306.135.411,10.341,31.3-.913.3Zm-3.854-17.8,5.077,15.367L258.3,285.565,248.7,256.5l-13.865-5.965a9.13,9.13,0,0,0-11.4,3.673l-13.311,22.154a4.053,4.053,0,0,1-4.689,1.788l-15.987-4.966a4.06,4.06,0,0,0-4.978,2.333Z" transform="translate(-154.557 -207.783)"/><path class="l" d="M218.648,242.723a10.235,10.235,0,1,1,3.2-.518A10.249,10.249,0,0,1,218.648,242.723Zm-.013-18.541a8.308,8.308,0,1,0,7.895,5.7A8.257,8.257,0,0,0,218.635,224.182Z" transform="translate(-166.882 -198.589)"/></g></g><g transform="translate(79.26 115.141)"><rect class="k" width="76.388" height="76.388" rx="6.357" transform="translate(3.877 3.877)"/><rect class="e" width="76.388" height="76.388" rx="6.357"/><g transform="translate(5.588 6.505)"><rect class="m" width="63.377" height="63.377" transform="translate(0.874)"/><path class="l" d="M324.548,312.947h-65.3V298.285l11.286-13.068a4.785,4.785,0,0,1,6.43-.769l10.384,7.418a1.4,1.4,0,0,0,1.731-.078l14.933-12.852a8.66,8.66,0,0,1,11.357.083l9.18,8.14Zm-63.377-1.923h61.454v-23l-8.533-7.565a6.732,6.732,0,0,0-8.826-.065l-14.933,12.852a3.318,3.318,0,0,1-4.1.186l-10.385-7.418a2.871,2.871,0,0,0-3.856.46L261.171,299Z" transform="translate(-259.247 -249.018)"/><path class="l" d="M311.633,265.108a8.028,8.028,0,1,1,8.028-8.028A8.037,8.037,0,0,1,311.633,265.108Zm0-14.132a6.1,6.1,0,1,0,6.1,6.1A6.111,6.111,0,0,0,311.633,250.975Z" transform="translate(-275.164 -239.041)"/></g></g><g transform="translate(43.808 152.846)"><rect class="k" width="49.345" height="49.345" rx="6.357" transform="translate(3.224 18.78) rotate(-20.54)"/><rect class="e" width="49.345" height="49.345" rx="6.357" transform="translate(0 17.313) rotate(-20.54)"/><g transform="translate(5.383 5.42)"><rect class="h" width="40.94" height="40.94" transform="matrix(0.936, -0.351, 0.351, 0.936, 0, 14.365)"/><path class="l" d="M223.146,355.017l-3.487-9.307,3.909-10.582A3.429,3.429,0,0,1,227.69,333l7.963,2.133a.564.564,0,0,0,.642-.274l6.12-11.159a5.941,5.941,0,0,1,7.31-2.677l7.54,2.9,6.018,16.062Zm-1.435-9.312,2.561,6.836,36.536-13.689-5.04-13.452-6.733-2.587a4.006,4.006,0,0,0-4.933,1.807l-6.12,11.159a2.483,2.483,0,0,1-2.826,1.208l-7.964-2.134a1.511,1.511,0,0,0-1.82.941Z" transform="translate(-209.384 -301.344)"/><path class="l" d="M240.506,319.826a5.526,5.526,0,1,1,5.169-7.466h0a5.526,5.526,0,0,1-5.169,7.466Zm-.01-9.13a3.6,3.6,0,1,0,3.378,2.34A3.592,3.592,0,0,0,240.5,310.7Z" transform="translate(-214.88 -297.09)"/></g></g></g></g></g></svg>