<svg xmlns="http://www.w3.org/2000/svg" width="44.107" height="58.651" viewBox="0 0 44.107 58.651"><defs><style>.a,.c{fill:#f5dde5;}.a{opacity:0.3;}.b{fill:none;stroke:#f5dde5;stroke-linecap:round;stroke-linejoin:round;stroke-width:3px;}.c{font-size:12px;font-family:Assistant-Bold, Assistant;font-weight:700;letter-spacing:0.05em;}</style></defs><g transform="translate(1.5 -0.756)"><path class="a" d="M5.64,0H18.415C21.53,0,33.727,10.808,33.727,13.923l.113,31.2a5.64,5.64,0,0,1-5.64,5.64H5.64A5.64,5.64,0,0,1,0,45.119V5.64A5.64,5.64,0,0,1,5.64,0Z" transform="translate(7.896 7.521)"/><g transform="translate(0 2.256)"><path class="b" d="M29.122,3H11.138A5.364,5.364,0,0,0,6,8.565V53.086a5.364,5.364,0,0,0,5.138,5.565h30.83a5.364,5.364,0,0,0,5.138-5.565V22.478Z" transform="translate(-6 -3)"/><path class="b" d="M19.5,3V22.478H38.978" transform="translate(2.129 -3)"/></g><text class="c" transform="translate(7.896 44.337)"><tspan x="0" y="0">XML</tspan></text></g></svg>