<svg xmlns="http://www.w3.org/2000/svg" width="15.386" height="15.372" viewBox="0 0 15.386 15.372"><defs><style>.a{fill:#0f2231;stroke:#0f2231;stroke-width:0.8px;}</style></defs><path class="a" d="M2.137,14.572A2.138,2.138,0,0,1,0,12.438V11.226a.317.317,0,0,1,.634,0v1.212a1.5,1.5,0,0,0,1.5,1.5H12.45a1.5,1.5,0,0,0,1.5-1.5V11.226a.317.317,0,1,1,.634,0v1.212a2.138,2.138,0,0,1-2.136,2.134Zm4.839-3.416V1.082l-3.9,3.894a.317.317,0,0,1-.449-.447L7.057.105A.318.318,0,0,1,7.5.076h0l0,0,0,0h0l.01.01,4.439,4.436a.317.317,0,1,1-.448.447L7.61,1.082V11.156a.317.317,0,0,1-.634,0Z" transform="translate(0.4 0.4)"/></svg>